<svg width="25" height="25" viewBox="0 0 25 25" fill="none" xmlns="http://www.w3.org/2000/svg">
    <mask id="mask0_453_8673" style="mask-type:alpha" maskUnits="userSpaceOnUse" x="0" y="0" width="25" height="25">
        <rect x="0.660156" y="0.797363" width="24" height="24" fill="#D9D9D9"/>
    </mask>
    <g mask="url(#mask0_453_8673)">
        <path d="M16.6602 11.7974V6.79736H18.6602V11.7974H16.6602ZM11.6602 18.6974C11.0768 18.5307 10.5977 18.2057 10.2227 17.7224C9.84766 17.239 9.66016 16.6807 9.66016 16.0474V6.79736H11.6602V18.6974ZM12.4102 22.7974C10.6768 22.7974 9.20182 22.189 7.98516 20.9724C6.76849 19.7557 6.16016 18.2807 6.16016 16.5474V7.29736C6.16016 6.04736 6.59766 4.98486 7.47266 4.10986C8.34766 3.23486 9.41016 2.79736 10.6602 2.79736C11.9102 2.79736 12.9727 3.23486 13.8477 4.10986C14.7227 4.98486 15.1602 6.04736 15.1602 7.29736V14.7974H13.1602V7.29736C13.1435 6.59736 12.8977 6.0057 12.4227 5.52236C11.9477 5.03903 11.3602 4.79736 10.6602 4.79736C9.96016 4.79736 9.36849 5.03903 8.88516 5.52236C8.40182 6.0057 8.16016 6.59736 8.16016 7.29736V16.5474C8.14349 17.7307 8.55182 18.7349 9.38516 19.5599C10.2185 20.3849 11.2268 20.7974 12.4102 20.7974C12.8268 20.7974 13.2227 20.7432 13.5977 20.6349C13.9727 20.5265 14.3268 20.364 14.6602 20.1474V22.3724C14.3102 22.5057 13.9477 22.6099 13.5727 22.6849C13.1977 22.7599 12.8102 22.7974 12.4102 22.7974ZM16.6602 21.7974V18.7974H13.6602V16.7974H16.6602V13.7974H18.6602V16.7974H21.6602V18.7974H18.6602V21.7974H16.6602Z" fill="white"/>
    </g>
</svg>