<svg xmlns="http://www.w3.org/2000/svg" width="15" height="14" viewBox="0 0 15 14" fill="none">
    <g clip-path="url(#clip0_314_8387)">
        <path d="M8.79501 8.57753C8.44671 8.80974 8.04213 8.93248 7.625 8.93248C7.2079 8.93248 6.80332 8.80974 6.45502 8.57753L0.718215 4.75288C0.686387 4.73166 0.655379 4.70954 0.625 4.68679V10.9539C0.625 11.6724 1.20811 12.2427 1.91379 12.2427H13.3362C14.0547 12.2427 14.625 11.6596 14.625 10.9539V4.68676C14.5945 4.70957 14.5635 4.73174 14.5316 4.75299L8.79501 8.57753Z" fill="#5C6DF9"/>
        <path d="M1.17324 4.07033L6.91004 7.89501C7.12721 8.03979 7.37609 8.11217 7.62497 8.11217C7.87388 8.11217 8.12279 8.03976 8.33996 7.89501L14.0768 4.07033C14.4201 3.8416 14.625 3.45878 14.625 3.04562C14.625 2.3352 14.047 1.75726 13.3366 1.75726H1.91336C1.20296 1.75729 0.625 2.33523 0.625 3.0463C0.625 3.45878 0.829969 3.8416 1.17324 4.07033Z" fill="#5C6DF9"/>
    </g>
    <defs>
        <clipPath id="clip0_314_8387">
            <rect width="14" height="14" fill="white" transform="translate(0.625)"/>
        </clipPath>
    </defs>
</svg>