<?xml version="1.0" encoding="utf-8"?>
<!-- Generator: Adobe Illustrator 22.0.0, SVG Export Plug-In . SVG Version: 6.00 Build 0)  -->
<svg version="1.1" id="Слой_1" xmlns="http://www.w3.org/2000/svg" xmlns:xlink="http://www.w3.org/1999/xlink" x="0px" y="0px" viewBox="0 0 706.2 337.7" style="enable-background:new 0 0 706.2 337.7;" xml:space="preserve">
    <path style="fill:#2E357C;" d="M151.1,115.9L192.5,2h77.2l41.4,113.9L352.5,2h77.2l41.4,113.9L512.5,2h77.2l62.5,172h40.6l-23,44
    h-77.3l-41.4-113.9L509.7,218h-77.2l-41.4-113.9L349.7,218h-77.2l-41.4-113.9L189.7,218h-77.2L50.3,47l-1.8-1H9.4L32.4,2h77.4
    L151.1,115.9z" />
    <path style="fill:#AA0959;" d="M391.1,110h-80l40-110L391.1,110z" />
    <path style="fill:#890A50;" d="M311.1,110h80l-40,110L311.1,110z" />
    <path style="fill:#6B0341;" d="M351.1,220h-80l40-110L351.1,220z" />
    <path style="fill:#C9085F;" d="M351.1,0h80l-40,110L351.1,0z" />
    <path style="fill:#414C9E;" d="M231.1,110h80l-40,110L231.1,110z" />
    <path style="fill:#2E357C;" d="M471.1,110h-80l40-110L471.1,110z" />
    <path style="fill:#38419A;" d="M311.1,110h-80l40-110L311.1,110z" />
    <path style="fill:#4652B0;" d="M391.1,110h80l-40,110L391.1,110z" />
    <path style="fill:#2E357C;" d="M191.1,0h80l-40,110L191.1,0z" />
    <path style="fill:#7389EA;" d="M511.1,220h-80l40-110L511.1,220z" />
    <path style="fill:#38419A;" d="M231.1,110h-80l40-110L231.1,110z" />
    <path style="fill:#414C9E;" d="M471.1,110h80l-40,110L471.1,110z" />
    <path style="fill:#414C9E;" d="M151.1,110h80l-40,110L151.1,110z" />
    <path style="fill:#38419A;" d="M551.1,110h-80l40-110L551.1,110z" />
    <path style="fill:#5261DF;" d="M191.1,220h-80l40-110L191.1,220z" />
    <path style="fill:#868FCB;" d="M511.1,0h80l-40,110L511.1,0z" />
    <path style="fill:#5C6DF9;" d="M71.1,110h80l-40,110L71.1,110z" />
    <path style="fill:#7C84C6;" d="M631.1,110h-80l40-110L631.1,110z" />
    <path style="fill:#6A79F8;" d="M151.1,110h-80l40-110L151.1,110z" />
    <path style="fill:#6F77B1;" d="M551.1,110h80l-40,110L551.1,110z" />
    <path style="fill:#7A87F8;" d="M31.1,0h80l-40,110L31.1,0z" />
    <path style="fill:#636B9E;" d="M671.1,220h-80l40-110L671.1,220z" />
    <path style="fill:#414C9E;" d="M6.1,48l25-48l17.4,48H6.1z" />
    <path style="fill:#414C9E;" d="M696.1,172L671,220l-17.4-48H696.1z" />
    <path style="fill:#002254;" d="M62.8,335.7h2.8l20.2-55.4h-7.3l-15.9,46.8l-16.4-46.8h-6.2l-16.6,46.8l-16-46.8H0l20.1,55.4H23
    l0.2,0.6l0.2-0.6h3L43,289.4l16.3,46.3h3.1l0.2,0.6L62.8,335.7z" />
    <path style="fill:#002254;" d="M97.5,309.6h52.3v-1.5c0-8.7-2.8-16-8-21.2c-5.2-5.2-12.6-8-21.4-8c-8.9,0-16.3,2.8-21.6,7.9
    c-5.2,5.1-8,12.4-8,21.2c0,8.7,2.8,16,8,21.1c5.2,5.1,12.6,7.8,21.6,7.8c14.1,0,24.3-6.8,26.8-16.4l0.5-1.9H140l-0.3,1
    c-2.1,6.6-9.7,11.4-19.4,11.4c-6.7,0-12.2-1.8-16.1-5.5C100.6,322,98.2,316.8,97.5,309.6z M120.3,284.7c6.1,0,11.7,1.8,15.7,5.2
    c3.7,3.1,6.3,7.8,6.6,13.9H97.5c0.8-6,3.4-10.6,7.1-13.7C108.7,286.6,114.1,284.7,120.3,284.7z" />
    <path style="fill:#002254;" d="M165.6,260.1h-6.5v75.6h6.5v-9.8c2.4,3.4,5.3,5.9,8.5,7.6c4.5,2.5,9.6,3.3,14.3,3.3
    c8.8,0,16.2-2.8,21.4-8c5.2-5.1,8-12.4,8-21.1c0-8.6-2.8-15.9-8-21c-5.2-5.1-12.6-7.9-21.4-7.9c-4.6,0-9.5,0.7-14,3
    c-3.2,1.7-6.2,4.2-8.8,7.7V260.1z M211.1,307.8c0,7-2.4,12.7-6.3,16.8c-4,4-9.6,6.4-16.5,6.4c-6.8,0-12.5-2.4-16.4-6.4
    c-3.9-4-6.3-9.8-6.3-16.8c0-7,2.4-12.7,6.3-16.7c4-4,9.6-6.4,16.5-6.4c6.8,0,12.5,2.4,16.4,6.4C208.8,295.2,211.1,300.9,211.1,307.8
    z" />
    <path style="fill:#002254;" d="M261.8,305.4h-36.7v5.6h36.7V305.4z" />
    <path style="fill:#002254;" d="M278.9,280.3h-6.4v55.4h6.4v-32c0-10.4,9.5-19,20.9-19c6.4,0,10.7,1.7,13.4,4.7
    c2.8,3.1,4.2,7.9,4.2,14.8v31.5h6.4v-32c0-11.1,9.4-19,22.1-19c6.5,0,10.3,1.7,12.7,4.7c2.4,3.1,3.5,7.9,3.5,14.8v31.5h6.4v-36.3
    c0-6.9-1.6-12.1-5.4-15.6c-3.7-3.5-9.3-4.9-16.5-4.9c-6.6,0-12.2,1.2-16.8,3.7c-3.5,2-6.4,4.7-8.4,8.2c-1.6-3.7-3.4-6.5-5.9-8.5
    c-3.2-2.5-7.3-3.4-12.5-3.4c-6.6,0-12.3,1.2-16.8,3.7c-2.9,1.6-5.3,3.7-7.2,6.2V280.3z" />
    <path style="fill:#002254;" d="M384,327.9L384,327.9L384,327.9c5.4,6.2,13.4,9.6,23.4,9.6c10.3,0,18.6-3.5,23.9-10.3
    c3.8-4.9,5.8-11.4,5.7-19c0-8.8-2.8-16-8.1-21c-5.2-5-12.6-7.6-21.5-7.6s-16.3,2.6-21.6,7.6c-5.2,5-8.1,12.2-8.1,21.1
    C377.6,316.1,379.8,322.8,384,327.9z M384.2,308.2c0-7.1,2.4-12.8,6.4-16.7c4-3.9,9.8-6.2,16.7-6.2c6.9,0,12.6,2.2,16.6,6.1
    c4,3.9,6.4,9.6,6.4,16.8c0,7.2-2.4,13-6.4,17.1c-4,4.1-9.7,6.4-16.6,6.4c-6.9,0-12.7-2.4-16.7-6.5
    C386.6,321.2,384.2,315.3,384.2,308.2z" />
    <path style="fill:#002254;" d="M448.3,320.5l-0.2-1.3h-6.6l0.1,1.6c0.3,5.1,2.8,9.4,7.2,12.3c4.4,2.9,10.6,4.6,18.6,4.6
    c9,0,15.8-1.4,20.4-4.3c4.7-3,7-7.5,7-13.2c0-4.3-1.2-7.7-4.2-10.1c-2.9-2.3-7.2-3.6-13.1-4.5h0l-14.4-2.2l0,0
    c-4.4-0.6-7.7-1.5-10-3c-2.1-1.4-3.3-3.3-3.3-6.4c0-2.8,1.4-5.2,4.2-7c2.9-1.8,7.1-2.9,12.6-2.9c5.8,0,10.5,1.1,13.7,2.9
    c3.2,1.8,5.1,4.3,5.5,7.2l0.2,1.3h6.7l0-1.5c-0.1-4.5-2.5-8.4-6.8-11.1c-4.3-2.7-10.4-4.3-18.2-4.3c-7.9,0-14.1,1.4-18.3,4.1
    c-4.3,2.8-6.4,6.8-6.4,11.7c0,4.4,1.2,7.9,4.3,10.3c2.9,2.4,7.4,3.7,13.5,4.5h0l16.3,2.4c3.6,0.6,6.4,1.6,8.2,3.1
    c1.8,1.4,2.7,3.4,2.7,6c0,3.4-1.7,6.1-5,8c-3.4,1.9-8.4,3-14.9,3c-6.1,0-10.9-1.2-14.2-3.2C450.6,326.6,448.7,323.9,448.3,320.5z" />
    <path style="fill:#002254;" d="M557.6,329.3c-0.2,0-0.3,0.1-0.4,0.1l-0.1,0c-0.1,0-0.2,0.1-0.3,0.1c-0.1,0-0.2,0.1-0.3,0.1
    c-0.1,0-0.1,0-0.1,0c-1,0-1.6-0.2-2-0.4c-0.3-0.2-0.6-0.5-0.7-0.9c-0.2-0.4-0.3-1-0.3-1.8c0-0.7,0-1.4,0-2.2c0-0.1,0-0.3,0-0.5v-25
    c0-5.7-0.2-9.7-3.1-13.4l0,0l0,0c-4-4.8-10.4-6.6-20.5-6.6c-8.3,0-14.8,1.4-19.2,4.3c-4.5,3-6.8,7.4-6.8,12.9l0,1.5h6.5v-1.5
    c0-3.4,1.5-6.2,4.5-8.2c3.1-2,7.9-3.2,14.5-3.2c5.9,0,10.3,1,13.2,2.7c2.8,1.7,4.2,4,4.2,7.2c0,2.3-0.4,3.7-1.1,4.7
    c-0.7,1-1.8,1.7-3.4,2.3c-1.6,0.6-3.7,0.9-6.4,1.3c-1,0.1-2.1,0.3-3.3,0.4c-1.8,0.2-3.7,0.4-5.7,0.7c-4.6,0.6-8.5,1.2-11.8,1.9
    c-3.2,0.7-5.9,1.7-8,3.2l0,0l0,0c-2,1.5-3.4,3.1-4.3,5.1c-0.9,2-1.4,4.1-1.4,6.5c0,5.1,1.7,9.3,5.3,12.1c3.6,2.8,8.8,4.1,15.6,4.1
    c8.8,0,18.6-2.1,24.6-9.2c0,0.6,0.1,1.1,0.2,1.6c0.2,1.6,0.5,2.9,1.1,3.9c0.6,1.1,1.5,1.8,2.5,2.1c1,0.3,2.1,0.4,3.1,0.4
    c1.8,0,3.7-0.4,4.4-0.6c0.1,0,0.2,0,0.2-0.1l1.2-0.2v-6L557.6,329.3z M546.8,313.3c0,10.4-9.8,18.2-23.9,18.2
    c-9.4,0-14.9-4.9-14.9-10.6c0-2.1,0.4-3.7,1.2-4.9c0.7-1.2,1.9-2.1,3.4-2.9c3.2-1.6,8-2.4,14.3-3.3l0,0c2.4-0.4,4.6-0.6,6.6-0.8
    l0.4,0h0c1.9-0.2,3.7-0.4,5.4-0.6c2.6-0.4,5.1-1.1,7.3-2.3V313.3z" />
    <path style="fill:#002254;" d="M568.5,269.8h6.4v-9.7h-6.4V269.8z M574.9,280.3h-6.4v55.4h6.4V280.3z" />
    <path style="fill:#002254;" d="M641.5,317.6l0.2-1.7H635l-0.2,1.2c-1.5,7.6-9.7,14-20.1,14c-6.9,0-12.6-2.4-16.7-6.4
    c-4-4.1-6.4-9.9-6.4-17.1c0-7.1,2.5-12.8,6.5-16.7c4-3.9,9.7-6.2,16.4-6.2c10.1,0,17.3,4.4,19.7,11.7l0.3,1h6.9l-0.3-1.7
    c-1.6-9.9-12.3-16.8-26.4-16.8c-8.9,0-16.4,2.6-21.6,7.6c-5.2,5-8.1,12.2-8.1,21.1c0,8.8,2.8,16.2,8.1,21.3c5.2,5.2,12.7,8,21.6,8
    C629.1,336.9,640.2,328.6,641.5,317.6z" />
    <path style="fill:#002254;" d="M704.4,329.3c-0.2,0-0.3,0.1-0.4,0.1l-0.1,0c-0.1,0-0.2,0.1-0.3,0.1c-0.1,0-0.2,0.1-0.3,0.1
    c-0.1,0-0.1,0-0.1,0c-1,0-1.6-0.2-2-0.4c-0.3-0.2-0.6-0.5-0.7-0.9c-0.2-0.4-0.3-1-0.3-1.8c0-0.7,0-1.4,0-2.2c0-0.1,0-0.3,0-0.5v-25
    c0-5.7-0.2-9.7-3.1-13.4l0,0l0,0c-4-4.8-10.4-6.6-20.4-6.6c-8.3,0-14.8,1.4-19.2,4.3c-4.5,3-6.8,7.4-6.8,12.9l0,1.5h6.5v-1.5
    c0-3.4,1.5-6.2,4.5-8.2c3.1-2,7.9-3.2,14.5-3.2c5.9,0,10.3,1,13.2,2.7c2.8,1.7,4.2,4,4.2,7.2c0,2.3-0.4,3.7-1.1,4.7
    c-0.7,1-1.8,1.7-3.4,2.3c-1.6,0.6-3.7,0.9-6.4,1.3c-1,0.1-2.1,0.3-3.3,0.4c-1.8,0.2-3.7,0.4-5.7,0.7c-4.6,0.6-8.5,1.2-11.8,1.9
    c-3.2,0.7-6,1.7-8,3.2l0,0l0,0c-2,1.5-3.4,3.1-4.3,5.1c-0.9,2-1.4,4.1-1.4,6.5c0,5.1,1.7,9.3,5.3,12.1c3.6,2.8,8.8,4.1,15.6,4.1
    c8.8,0,18.6-2.1,24.6-9.2c0,0.6,0.1,1.1,0.2,1.6c0.2,1.6,0.5,2.9,1.1,3.9c0.6,1.1,1.5,1.8,2.5,2.1c1,0.3,2.1,0.4,3.1,0.4
    c1.8,0,3.7-0.4,4.4-0.6c0.1,0,0.2,0,0.2-0.1l1.2-0.2v-6L704.4,329.3z M693.8,313.3c0,10.4-9.8,18.2-23.9,18.2
    c-9.4,0-14.9-4.9-14.9-10.6c0-2.1,0.4-3.7,1.2-4.9c0.7-1.2,1.9-2.1,3.4-2.9c3.2-1.6,8-2.4,14.3-3.3l0,0c2.4-0.4,4.6-0.6,6.6-0.8
    l0.4,0h0c1.9-0.2,3.7-0.4,5.4-0.6c2.6-0.4,5.1-1.1,7.3-2.3V313.3z" />
</svg>