<svg width="303" height="141" viewBox="0 0 303 141" fill="none" xmlns="http://www.w3.org/2000/svg" class="wm_logo" style="visibility: inherit; opacity: 1;">
    <path fill-rule="evenodd" clip-rule="evenodd" d="M12.5065 0L1.72559 20.1213H20.0108L12.5065 0Z" fill="#414C9E" data-svg-origin="10.868194818496704 10.060649871826172" style="opacity: 1; transform: matrix(1, 0, 0, 1, 0, 0); transform-origin: 0px 0px 0px;"></path>
    <path fill-rule="evenodd" clip-rule="evenodd" d="M12.5063 0L29.757 46.1107L47.0068 0H12.5063Z" fill="#7A87F8" data-svg-origin="29.75655174255371 23.055349349975586" style="opacity: 1; transform: matrix(1, 0, 0, 1, 0, 0); transform-origin: 0px 0px 0px;"></path>
    <path fill-rule="evenodd" clip-rule="evenodd" d="M299.291 72.0998L288.466 92.2206L280.962 72.0998H299.291Z" fill="#414C9E" data-svg-origin="290.1264953613281 82.16019821166992" style="opacity: 1; transform: matrix(1, 0, 0, 1, 0, 0); transform-origin: 0px 0px 0px;"></path>
    <path fill-rule="evenodd" clip-rule="evenodd" d="M81.5073 0L98.758 46.1107L116.008 0H81.5073Z" fill="#2E357C" data-svg-origin="98.75765228271484 23.055349349975586" style="opacity: 1; transform: matrix(1, 0, 0, 1, 0, 0); transform-origin: 0px 0px 0px;"></path>
    <path fill-rule="evenodd" clip-rule="evenodd" d="M81.507 0L64.2568 46.1107H98.7577L81.507 0Z" fill="#38419A" data-svg-origin="81.50724792480469 23.055349349975586" style="opacity: 1; transform: matrix(1, 0, 0, 1, 0, 0); transform-origin: 0px 0px 0px;"></path>
    <path fill-rule="evenodd" clip-rule="evenodd" d="M29.7568 46.1104H64.2573L47.0071 92.2207L29.7568 46.1104Z" fill="#5C6DF9" data-svg-origin="47.00705146789551 69.16555213928223" style="opacity: 1; transform: matrix(1, 0, 0, 1, 0, 0); transform-origin: 0px 0px 0px;"></path>
    <path fill-rule="evenodd" clip-rule="evenodd" d="M64.2568 46.1104H98.7573L81.5071 92.2207L64.2568 46.1104Z" fill="#414C9E" data-svg-origin="81.50704956054688 69.16555213928223" style="opacity: 1; transform: matrix(1, 0, 0, 1, 0, 0); transform-origin: 0px 0px 0px;"></path>
    <path fill-rule="evenodd" clip-rule="evenodd" d="M81.5068 92.2207H47.0063L64.2566 46.1104L81.5068 92.2207Z" fill="#5261DF" data-svg-origin="64.25654983520508 69.16555213928223" style="opacity: 1; transform: matrix(1, 0, 0, 1, 0, 0); transform-origin: 0px 0px 0px;"></path>
    <path fill-rule="evenodd" clip-rule="evenodd" d="M254.009 0L236.759 46.1107H271.259L254.009 0Z" fill="#7C84C6" data-svg-origin="254.00900268554688 23.055349349975586" style="opacity: 1; transform: matrix(1, 0, 0, 1, 0, 0); transform-origin: 0px 0px 0px;"></path>
    <path fill-rule="evenodd" clip-rule="evenodd" d="M236.759 46.1104H271.259L254.009 92.2207L236.759 46.1104Z" fill="#6F77B1" data-svg-origin="254.00900268554688 69.16555213928223" style="opacity: 1; transform: matrix(1, 0, 0, 1, 0, 0); transform-origin: 0px 0px 0px;"></path>
    <path fill-rule="evenodd" clip-rule="evenodd" d="M288.51 92.2207H254.009L271.259 46.1104L288.51 92.2207Z" fill="#636B9E" data-svg-origin="271.25950622558594 69.16555213928223" style="opacity: 1; transform: matrix(1, 0, 0, 1, 0, 0); transform-origin: 0px 0px 0px;"></path>
    <path fill-rule="evenodd" clip-rule="evenodd" d="M116.008 0L98.7578 46.1107H133.258L116.008 0Z" fill="#38419A" data-svg-origin="116.00789642333984 23.055349349975586" style="opacity: 1; transform: matrix(1, 0, 0, 1, 0, 0); transform-origin: 0px 0px 0px;"></path>
    <path fill-rule="evenodd" clip-rule="evenodd" d="M47.0071 0L29.7568 46.1107H64.2573L47.0071 0Z" fill="#6A79F8" data-svg-origin="47.00705146789551 23.055349349975586" style="opacity: 1; transform: matrix(1, 0, 0, 1, 0, 0); transform-origin: 0px 0px 0px;"></path>
    <path fill-rule="evenodd" clip-rule="evenodd" d="M150.508 0L167.758 46.1107L185.008 0H150.508Z" fill="#C9085F" data-svg-origin="167.75799560546875 23.055349349975586" style="opacity: 1; transform: matrix(1, 0, 0, 1, 0, 0); transform-origin: 0px 0px 0px;"></path>
    <path fill-rule="evenodd" clip-rule="evenodd" d="M150.508 0L133.257 46.1107H167.758L150.508 0Z" fill="#AA0959" data-svg-origin="150.50749969482422 23.055349349975586" style="opacity: 1; transform: matrix(1, 0, 0, 1, 0, 0); transform-origin: 0px 0px 0px;"></path>
    <path fill-rule="evenodd" clip-rule="evenodd" d="M98.7578 46.1104H133.258L116.008 92.2207L98.7578 46.1104Z" fill="#414C9E" data-svg-origin="116.00789642333984 69.16555213928223" style="opacity: 1; transform: matrix(1, 0, 0, 1, 0, 0); transform-origin: 0px 0px 0px;"></path>
    <path fill-rule="evenodd" clip-rule="evenodd" d="M133.258 46.1104H167.759L150.509 92.2207L133.258 46.1104Z" fill="#890A50" data-svg-origin="150.5084991455078 69.16555213928223" style="opacity: 1; transform: matrix(1, 0, 0, 1, 0, 0); transform-origin: 0px 0px 0px;"></path>
    <path fill-rule="evenodd" clip-rule="evenodd" d="M150.508 92.2207H116.008L133.258 46.1104L150.508 92.2207Z" fill="#6B0341" data-svg-origin="133.25799942016602 69.16555213928223" style="opacity: 1; transform: matrix(1, 0, 0, 1, 0, 0); transform-origin: 0px 0px 0px;"></path>
    <path fill-rule="evenodd" clip-rule="evenodd" d="M185.008 0L167.758 46.1107H202.259L185.008 0Z" fill="#2E357C" data-svg-origin="185.0084991455078 23.055349349975586" style="opacity: 1; transform: matrix(1, 0, 0, 1, 0, 0); transform-origin: 0px 0px 0px;"></path>
    <path fill-rule="evenodd" clip-rule="evenodd" d="M219.508 0L236.759 46.1107L254.009 0H219.508Z" fill="#868FCB" data-svg-origin="236.7584991455078 23.055349349975586" style="opacity: 1; transform: matrix(1, 0, 0, 1, 0, 0); transform-origin: 0px 0px 0px;"></path>
    <path fill-rule="evenodd" clip-rule="evenodd" d="M219.509 0L202.259 46.1107H236.759L219.509 0Z" fill="#38419A" data-svg-origin="219.50900268554688 23.055349349975586" style="opacity: 1; transform: matrix(1, 0, 0, 1, 0, 0); transform-origin: 0px 0px 0px;"></path>
    <path fill-rule="evenodd" clip-rule="evenodd" d="M167.758 46.1104H202.259L185.008 92.2207L167.758 46.1104Z" fill="#4652B0" data-svg-origin="185.0084991455078 69.16555213928223" style="opacity: 1; transform: matrix(1, 0, 0, 1, 0, 0); transform-origin: 0px 0px 0px;"></path>
    <path fill-rule="evenodd" clip-rule="evenodd" d="M202.259 46.1104H236.759L219.509 92.2207L202.259 46.1104Z" fill="#414C9E" data-svg-origin="219.50900268554688 69.16555213928223" style="opacity: 1; transform: matrix(1, 0, 0, 1, 0, 0); transform-origin: 0px 0px 0px;"></path>
    <path fill-rule="evenodd" clip-rule="evenodd" d="M219.509 92.2207H185.009L202.259 46.1104L219.509 92.2207Z" fill="#7389EA" data-svg-origin="202.25900268554688 69.16555213928223" style="opacity: 1; transform: matrix(1, 0, 0, 1, 0, 0); transform-origin: 0px 0px 0px;"></path>
    <path fill-rule="evenodd" clip-rule="evenodd" d="M33.3792 118.126L26.0478 139.043L18.5009 118.126H16.7327L9.09949 139.043L1.76815 118.126H0L8.19385 140.092H10.0051L17.6383 119.426L25.0986 140.092H26.9103L35.1473 118.126H33.3792Z" fill="white" data-svg-origin="17.573650360107422 129.1089973449707" style="opacity: 1; transform: matrix(1, 0, 0, 1, 0, 0); transform-origin: 0px 0px 0px;"></path>
    <path fill-rule="evenodd" clip-rule="evenodd" d="M50.974 118.713C45.3677 118.713 40.9257 122.024 40.4082 127.977H61.281C61.281 121.857 56.4509 118.713 50.974 118.713ZM50.9742 117.54C58.3056 117.54 63.0062 122.151 63.0062 129.151H40.4085C40.8397 136.151 44.9367 139.379 50.9742 139.379C55.3299 139.379 58.9093 137.283 59.9443 134.181H61.885C60.9362 137.828 56.8824 140.595 50.9742 140.595C43.4704 140.595 38.856 136.151 38.856 129.109C38.856 122.067 43.5566 117.54 50.9742 117.54Z" fill="white" data-svg-origin="50.93109893798828 129.06750106811523" style="opacity: 1; transform: matrix(1, 0, 0, 1, 0, 0); transform-origin: 0px 0px 0px;"></path>
    <path fill-rule="evenodd" clip-rule="evenodd" d="M80.2991 139.379C74.089 139.379 69.8627 135.187 69.8627 129.025C69.8627 122.905 74.1322 118.713 80.3422 118.713C86.5523 118.713 90.7786 122.989 90.7786 129.025C90.7786 135.145 86.5092 139.379 80.2991 139.379ZM80.3424 117.539C76.4611 117.539 72.3642 118.629 69.8629 123.743V109.659H68.3535V140.092H69.8629V134.223C72.1486 139.211 76.3749 140.595 80.3424 140.595C87.6738 140.595 92.3744 136.025 92.3744 129.025C92.3744 122.067 87.6738 117.539 80.3424 117.539Z" fill="white" data-svg-origin="80.36394882202148 125.12699890136719" style="opacity: 1; transform: matrix(1, 0, 0, 1, 0, 0); transform-origin: 0px 0px 0px;"></path>
    <path fill-rule="evenodd" clip-rule="evenodd" d="M96.8169 129.738H111.35V128.648H96.8169V129.738Z" fill="white" data-svg-origin="104.08345031738281 129.19300079345703" style="opacity: 1; transform: matrix(1, 0, 0, 1, 0, 0); transform-origin: 0px 0px 0px;"></path>
    <path fill-rule="evenodd" clip-rule="evenodd" d="M148.567 117.54C143.047 117.54 139.252 119.468 137.614 123.492C136.105 119.007 134.077 117.54 129.722 117.54C124.158 117.54 120.406 119.468 118.725 123.492V118.126H117.258V140.092H118.725V127.307C118.725 122.527 123.167 118.713 128.385 118.713C134.12 118.713 136.622 121.648 136.622 127.516V140.092H138.088V127.307C138.088 122.234 142.53 118.713 148.266 118.713C154.044 118.713 155.899 121.648 155.899 127.516V140.092H157.365V125.504C157.365 119.887 154.691 117.54 148.567 117.54Z" fill="white" data-svg-origin="137.31150436401367 128.81599807739258" style="opacity: 1; transform: matrix(1, 0, 0, 1, 0, 0); transform-origin: 0px 0px 0px;"></path>
    <path fill-rule="evenodd" clip-rule="evenodd" d="M174.744 139.672C168.448 139.672 164.135 135.438 164.135 129.193C164.135 122.947 168.448 118.965 174.744 118.965C180.998 118.965 185.31 122.905 185.31 129.193C185.31 135.481 180.998 139.672 174.744 139.672ZM174.744 117.791C167.327 117.791 162.583 122.067 162.583 129.193C162.583 132.379 163.489 135.061 165.171 137.074C167.327 139.505 170.604 140.846 174.744 140.846C179.057 140.846 182.421 139.421 184.534 136.78C186.086 134.852 186.906 132.294 186.863 129.193C186.863 122.067 182.162 117.791 174.744 117.791Z" fill="white" data-svg-origin="174.7238006591797 129.31849670410156" style="opacity: 1; transform: matrix(1, 0, 0, 1, 0, 0); transform-origin: 0px 0px 0px;"></path>
    <path fill-rule="evenodd" clip-rule="evenodd" d="M204.933 128.732L198.723 127.81C194.927 127.307 192.426 126.259 192.426 123.282C192.426 120.432 195.488 118.504 200.318 118.504C205.493 118.504 208.814 120.39 209.245 123.282H210.927C210.841 120.012 207.391 117.456 200.793 117.456C194.065 117.456 190.787 119.803 190.787 123.45C190.787 126.929 192.685 128.355 197.903 129.067L204.933 130.073C208.167 130.576 210.194 131.918 210.194 134.517C210.194 137.87 206.701 139.756 200.965 139.756C195.574 139.756 192.167 137.661 191.779 134.433H190.184C190.442 138.289 193.936 140.93 200.664 140.93C208.339 140.93 211.833 138.666 211.833 134.223C211.833 130.827 209.978 129.444 204.933 128.732Z" fill="white" data-svg-origin="201.0084991455078 129.19299697875977" style="opacity: 1; transform: matrix(1, 0, 0, 1, 0, 0); transform-origin: 0px 0px 0px;"></path>
    <path fill-rule="evenodd" clip-rule="evenodd" d="M235.422 131.33C235.422 136.193 230.721 139.588 224.468 139.588C220.242 139.588 217.396 137.409 217.396 134.517C217.396 130.576 220.759 130.031 226.107 129.235C230.247 128.606 233.266 128.941 235.422 127.013V131.33ZM239.001 138.834C236.931 138.834 237.017 137.409 237.017 135.816V125.336C237.017 122.947 236.931 121.48 235.81 120.096C234.257 118.294 231.756 117.54 227.487 117.54C220.457 117.54 216.878 119.929 216.921 124.121H218.43C218.43 120.809 221.492 118.713 227.271 118.713C232.489 118.713 235.422 120.348 235.422 123.492C235.422 127.6 232.101 127.264 226.279 128.061C222.312 128.564 219.595 128.983 218.042 130.073C216.49 131.205 215.843 132.546 215.843 134.432C215.843 138.457 218.517 140.595 224.209 140.595C228.565 140.595 233.222 139.421 235.422 135.397C235.422 139.672 236.026 140.091 237.837 140.091C238.656 140.091 239.476 139.882 239.691 139.84V138.666C239.519 138.709 239.217 138.834 239.001 138.834Z" fill="white" data-svg-origin="227.76699829101562 129.06750106811523" style="opacity: 1; transform: matrix(1, 0, 0, 1, 0, 0); transform-origin: 0px 0px 0px;"></path>
    <path fill-rule="evenodd" clip-rule="evenodd" d="M244.91 140.091H246.376V118.126H244.91V140.091Z" fill="white" data-svg-origin="245.64300537109375 129.10850143432617" style="opacity: 1; transform: matrix(1, 0, 0, 1, 0, 0); transform-origin: 0px 0px 0px;"></path>
    <path fill-rule="evenodd" clip-rule="evenodd" d="M244.91 112.467H246.376V109.659H244.91V112.467Z" fill="white" data-svg-origin="245.64300537109375 111.0629997253418" style="opacity: 1; transform: matrix(1, 0, 0, 1, 0, 0); transform-origin: 0px 0px 0px;"></path>
    <path fill-rule="evenodd" clip-rule="evenodd" d="M264.144 139.421C257.891 139.421 253.535 135.229 253.535 128.941C253.535 122.653 258.02 118.713 264.058 118.713C268.586 118.713 272.036 120.641 273.157 124.037H274.882C274.278 120.348 270.052 117.54 264.144 117.54C256.683 117.54 251.983 121.815 251.983 128.941C251.983 136.067 256.683 140.595 264.144 140.595C270.181 140.595 274.58 137.241 275.098 133.05H273.459C272.726 136.57 268.888 139.421 264.144 139.421Z" fill="white" data-svg-origin="263.5404968261719 129.06750106811523" style="opacity: 1; transform: matrix(1, 0, 0, 1, 0, 0); transform-origin: 0px 0px 0px;"></path>
    <path fill-rule="evenodd" clip-rule="evenodd" d="M298.731 131.33C298.731 136.193 294.031 139.588 287.777 139.588C283.551 139.588 280.704 137.409 280.704 134.517C280.704 130.576 284.068 130.031 289.416 129.235C293.556 128.606 296.575 128.941 298.731 127.013V131.33ZM303 138.666C302.828 138.709 302.526 138.834 302.31 138.834C300.24 138.834 300.326 137.409 300.326 135.816V125.336C300.326 122.947 300.24 121.48 299.119 120.096C297.566 118.294 295.065 117.54 290.796 117.54C283.766 117.54 280.187 119.929 280.23 124.121H281.74C281.74 120.809 284.801 118.713 290.58 118.713C295.798 118.713 298.731 120.348 298.731 123.492C298.731 127.6 295.41 127.264 289.588 128.061C285.621 128.564 282.904 128.983 281.351 130.073C279.799 131.205 279.152 132.546 279.152 134.432C279.152 138.457 281.825 140.595 287.518 140.595C291.874 140.595 296.531 139.421 298.731 135.397C298.731 139.672 299.334 140.091 301.146 140.091C301.965 140.091 302.784 139.882 303 139.84V138.666Z" fill="white" data-svg-origin="291.0760040283203 129.06750106811523" style="opacity: 1; transform: matrix(1, 0, 0, 1, 0, 0); transform-origin: 0px 0px 0px;"></path>
</svg>