<svg xmlns="http://www.w3.org/2000/svg" width="15" height="14" viewBox="0 0 15 14"
     fill="none">
    <g clip-path="url(#clip0_314_8381)">
        <path d="M14.1747 10.08C14.1364 10.0497 11.3583 8.0472 10.5958 8.19093C10.2318 8.25533 10.0237 8.5036 9.606 9.0006C9.5388 9.08087 9.37733 9.27313 9.2518 9.40987C8.98785 9.32378 8.73038 9.21898 8.48133 9.09627C7.19591 8.47047 6.15733 7.43189 5.53153 6.14647C5.40874 5.89746 5.30394 5.63998 5.21793 5.376C5.35513 5.25 5.5474 5.08853 5.62953 5.01947C6.1242 4.60413 6.37293 4.396 6.43733 4.03107C6.5694 3.27507 4.56833 0.477867 4.54733 0.452667C4.45654 0.322966 4.33806 0.215069 4.20045 0.136781C4.06284 0.0584937 3.90955 0.0117731 3.75167 0C2.9406 0 0.625 3.00393 0.625 3.5098C0.625 3.5392 0.667467 6.52773 4.35273 10.2765C8.09773 13.9575 11.0858 14 11.1152 14C11.6215 14 14.625 11.6844 14.625 10.8733C14.6134 10.716 14.5669 10.5632 14.489 10.426C14.4112 10.2888 14.3038 10.1706 14.1747 10.08Z"
              fill="#5C6DF9"/>
    </g>
    <defs>
        <clipPath id="clip0_314_8381">
            <rect width="14" height="14" fill="white" transform="translate(0.625)"/>
        </clipPath>
    </defs>
</svg>